<?xml version="1.0" encoding="UTF-8" standalone="no"?>
<!DOCTYPE svg PUBLIC "-//W3C//DTD SVG 1.0//EN" "http://www.w3.org/TR/2001/PR-SVG-20010719/DTD/svg10.dtd">
<svg width="34cm" height="37cm" viewBox="123 -52 677 739" xmlns="http://www.w3.org/2000/svg" xmlns:xlink="http://www.w3.org/1999/xlink">
  <g>
    <rect style="fill: #ffffff" x="144" y="179" width="87" height="28"/>
    <rect style="fill: none; fill-opacity:0; stroke-width: 2; stroke: #000000" x="144" y="179" width="87" height="28"/>
    <text font-size="16" style="fill: #000000;text-anchor:middle;font-family:sans-serif;font-style:normal;font-weight:700" x="187.5" y="198">DTNMon</text>
    <rect style="fill: #ffffff" x="144" y="207" width="87" height="20"/>
    <rect style="fill: none; fill-opacity:0; stroke-width: 2; stroke: #000000" x="144" y="207" width="87" height="20"/>
    <text font-size="12.8" style="fill: #000000;text-anchor:start;font-family:monospace;font-style:normal;font-weight:normal" x="147" y="221">+FlowTable</text>
    <rect style="fill: #ffffff" x="144" y="227" width="87" height="8"/>
    <rect style="fill: none; fill-opacity:0; stroke-width: 2; stroke: #000000" x="144" y="227" width="87" height="8"/>
  </g>
  <g>
    <rect style="fill: #ffffff" x="317" y="173" width="125.5" height="28"/>
    <rect style="fill: none; fill-opacity:0; stroke-width: 2; stroke: #000000" x="317" y="173" width="125.5" height="28"/>
    <text font-size="16" style="fill: #000000;text-anchor:middle;font-family:sans-serif;font-style:normal;font-weight:700" x="379.75" y="192">Data_Logger</text>
    <rect style="fill: #ffffff" x="317" y="201" width="125.5" height="20"/>
    <rect style="fill: none; fill-opacity:0; stroke-width: 2; stroke: #000000" x="317" y="201" width="125.5" height="20"/>
    <text font-size="12.8" style="fill: #000000;text-anchor:start;font-family:monospace;font-style:normal;font-weight:normal" x="320" y="215">+System_records</text>
    <rect style="fill: #ffffff" x="317" y="221" width="125.5" height="20"/>
    <rect style="fill: none; fill-opacity:0; stroke-width: 2; stroke: #000000" x="317" y="221" width="125.5" height="20"/>
    <text font-size="12.8" style="fill: #000000;text-anchor:start;font-family:monospace;font-style:normal;font-weight:normal" x="320" y="235">+Run()</text>
  </g>
  <g>
    <polyline style="fill: none; fill-opacity:0; stroke-width: 2; stroke: #000000" points="315.998,207 273.998,207 273.998,207 245.145,207 "/>
    <polygon style="fill: #ffffff" points="231.974,207 239.974,199 247.974,207 239.974,215 "/>
    <polygon style="fill: none; fill-opacity:0; stroke-width: 2; stroke: #000000" points="231.974,207 239.974,199 247.974,207 239.974,215 "/>
    <text font-size="12.8" style="fill: #000000;text-anchor:middle;font-family:monospace;font-style:normal;font-weight:normal" x="293" y="187">
      <tspan x="293" y="187"></tspan>
    </text>
  </g>
  <g>
    <polyline style="fill: none; fill-opacity:0; stroke-width: 2; stroke: #000000" points="379.75,173 379.75,121.004 315.2,121.004 315.2,73.4809 "/>
    <polyline style="fill: none; fill-opacity:0; stroke-width: 2; stroke: #000000" points="320.2,81.2449 315.2,71.2449 310.2,81.2449 "/>
  </g>
  <g>
    <polyline style="fill: none; fill-opacity:0; stroke-width: 2; stroke: #000000" points="379.75,173 379.75,121.004 476.45,121.004 476.45,73.4809 "/>
    <polyline style="fill: none; fill-opacity:0; stroke-width: 2; stroke: #000000" points="481.45,81.2449 476.45,71.2449 471.45,81.2449 "/>
  </g>
  <g>
    <polygon style="fill: #ffffff" points="260,34 358.4,34 370.4,46 370.4,68 260,68 "/>
    <polygon style="fill: none; fill-opacity:0; stroke-width: 2; stroke: #000000" points="260,34 358.4,34 370.4,46 370.4,68 260,68 "/>
    <polyline style="fill: none; fill-opacity:0; stroke-width: 1; stroke: #000000" points="358.4,34 358.4,46 370.4,46 "/>
    <text font-size="12.8" style="fill: #000000;text-anchor:start;font-family:monospace;font-style:normal;font-weight:normal" x="267" y="58.9">
      <tspan x="267" y="58.9">Transfer.log</tspan>
    </text>
  </g>
  <g>
    <polygon style="fill: #ffffff" points="402,34 538.9,34 550.9,46 550.9,68 402,68 "/>
    <polygon style="fill: none; fill-opacity:0; stroke-width: 2; stroke: #000000" points="402,34 538.9,34 550.9,46 550.9,68 402,68 "/>
    <polyline style="fill: none; fill-opacity:0; stroke-width: 1; stroke: #000000" points="538.9,34 538.9,46 550.9,46 "/>
    <text font-size="12.8" style="fill: #000000;text-anchor:start;font-family:monospace;font-style:normal;font-weight:normal" x="409" y="58.9">
      <tspan x="409" y="58.9">System infomation</tspan>
    </text>
  </g>
  <rect style="fill: none; fill-opacity:0; stroke-width: 2; stroke-dasharray: 20 8 4 8; stroke: #000000" x="125" y="1" width="468" height="309"/>
  <text font-size="28.2222" style="fill: #000000;text-anchor:start;font-family:sans-serif;font-style:normal;font-weight:normal" x="307" y="-25">
    <tspan x="307" y="-25">Server</tspan>
  </text>
  <g>
    <rect style="fill: #ffffff" x="133" y="449" width="110.1" height="28"/>
    <rect style="fill: none; fill-opacity:0; stroke-width: 2; stroke: #000000" x="133" y="449" width="110.1" height="28"/>
    <text font-size="16" style="fill: #000000;text-anchor:middle;font-family:sans-serif;font-style:normal;font-weight:700" x="188.05" y="468">FlowMon</text>
    <rect style="fill: #ffffff" x="133" y="477" width="110.1" height="20"/>
    <rect style="fill: none; fill-opacity:0; stroke-width: 2; stroke: #000000" x="133" y="477" width="110.1" height="20"/>
    <text font-size="12.8" style="fill: #000000;text-anchor:start;font-family:monospace;font-style:normal;font-weight:normal" x="136" y="491">+Flow</text>
    <rect style="fill: #ffffff" x="133" y="497" width="110.1" height="20"/>
    <rect style="fill: none; fill-opacity:0; stroke-width: 2; stroke: #000000" x="133" y="497" width="110.1" height="20"/>
    <text font-size="12.8" style="fill: #000000;text-anchor:start;font-family:monospace;font-style:normal;font-weight:normal" x="136" y="511">+Watch_flow()</text>
  </g>
  <g>
    <rect style="fill: #ffffff" x="280" y="448" width="145.65" height="28"/>
    <rect style="fill: none; fill-opacity:0; stroke-width: 2; stroke: #000000" x="280" y="448" width="145.65" height="28"/>
    <text font-size="16" style="fill: #000000;text-anchor:middle;font-family:sans-serif;font-style:normal;font-weight:700" x="352.825" y="467">nmon_analyser</text>
    <rect style="fill: #ffffff" x="280" y="476" width="145.65" height="20"/>
    <rect style="fill: none; fill-opacity:0; stroke-width: 2; stroke: #000000" x="280" y="476" width="145.65" height="20"/>
    <text font-size="12.8" style="fill: #000000;text-anchor:start;font-family:monospace;font-style:normal;font-weight:normal" x="283" y="490">+System_Data</text>
    <rect style="fill: #ffffff" x="280" y="496" width="145.65" height="20"/>
    <rect style="fill: none; fill-opacity:0; stroke-width: 2; stroke: #000000" x="280" y="496" width="145.65" height="20"/>
    <text font-size="12.8" style="fill: #000000;text-anchor:start;font-family:monospace;font-style:normal;font-weight:normal" x="283" y="510">+analyse()</text>
  </g>
  <g>
    <polyline style="fill: none; fill-opacity:0; stroke-width: 2; stroke: #000000" points="188.05,449 188.05,342 187.5,342 187.5,239.472 "/>
    <polyline style="fill: none; fill-opacity:0; stroke-width: 2; stroke: #000000" points="192.5,247.236 187.5,237.236 182.5,247.236 "/>
  </g>
  <g>
    <polyline style="fill: none; fill-opacity:0; stroke-width: 2; stroke: #000000" points="352.825,448 352.825,341.5 187.5,341.5 187.5,239.472 "/>
    <polyline style="fill: none; fill-opacity:0; stroke-width: 2; stroke: #000000" points="192.5,247.236 187.5,237.236 182.5,247.236 "/>
  </g>
  <text font-size="12.8" style="fill: #000000;text-anchor:start;font-family:sans-serif;font-style:normal;font-weight:normal" x="194" y="260.5">
    <tspan x="194" y="260.5">TCP port 50000</tspan>
  </text>
  <text font-size="12.8" style="fill: #000000;text-anchor:start;font-family:sans-serif;font-style:normal;font-weight:normal" x="198" y="419">
    <tspan x="198" y="419">Send Flow</tspan>
  </text>
  <text font-size="12.8" style="fill: #000000;text-anchor:start;font-family:sans-serif;font-style:normal;font-weight:normal" x="362" y="418">
    <tspan x="362" y="418">Send System_Data</tspan>
  </text>
  <g>
    <rect style="fill: #ffffff" x="134" y="587" width="133.2" height="28"/>
    <rect style="fill: none; fill-opacity:0; stroke-width: 2; stroke: #000000" x="134" y="587" width="133.2" height="28"/>
    <text font-size="16" style="fill: #000000;text-anchor:middle;font-family:sans-serif;font-style:normal;font-weight:700" x="200.6" y="606">TransferMon</text>
    <rect style="fill: #ffffff" x="134" y="615" width="133.2" height="20"/>
    <rect style="fill: none; fill-opacity:0; stroke-width: 2; stroke: #000000" x="134" y="615" width="133.2" height="20"/>
    <text font-size="12.8" style="fill: #000000;text-anchor:start;font-family:monospace;font-style:normal;font-weight:normal" x="137" y="629">+path</text>
    <rect style="fill: #ffffff" x="134" y="635" width="133.2" height="20"/>
    <rect style="fill: none; fill-opacity:0; stroke-width: 2; stroke: #000000" x="134" y="635" width="133.2" height="20"/>
    <text font-size="12.8" style="fill: #000000;text-anchor:start;font-family:monospace;font-style:normal;font-weight:normal" x="137" y="649">+get_size_diff()</text>
  </g>
  <g>
    <polyline style="fill: none; fill-opacity:0; stroke-width: 2; stroke: #000000" points="200.6,585.994 200.6,555 188.05,555 188.05,542.172 "/>
    <polygon style="fill: #ffffff" points="188.05,517 192.85,531 188.05,545 183.25,531 "/>
    <polygon style="fill: none; fill-opacity:0; stroke-width: 2; stroke: #000000" points="188.05,517 192.85,531 188.05,545 183.25,531 "/>
    <text font-size="12.7998" style="fill: #000000;text-anchor:middle;font-family:monospace;font-style:normal;font-weight:normal" x="194.325" y="552"></text>
    <text font-size="12.7998" style="fill: #000000;text-anchor:start;font-family:monospace;font-style:normal;font-weight:normal" x="204.6" y="581.994"></text>
    <text font-size="12.7998" style="fill: #000000;text-anchor:start;font-family:monospace;font-style:normal;font-weight:normal" x="199.05" y="529"></text>
  </g>
  <rect style="fill: none; fill-opacity:0; stroke-width: 2; stroke-dasharray: 20 8 4 8; stroke: #000000" x="128" y="384" width="359" height="290"/>
  <text font-size="28.2222" style="fill: #000000;text-anchor:start;font-family:sans-serif;font-style:normal;font-weight:normal" x="385" y="366">
    <tspan x="385" y="366">Client</tspan>
  </text>
  <g>
    <polygon style="fill: #ffffff" points="554,468 590.8,468 602.8,480 602.8,502 554,502 "/>
    <polygon style="fill: none; fill-opacity:0; stroke-width: 2; stroke: #000000" points="554,468 590.8,468 602.8,480 602.8,502 554,502 "/>
    <polyline style="fill: none; fill-opacity:0; stroke-width: 1; stroke: #000000" points="590.8,468 590.8,480 602.8,480 "/>
    <text font-size="12.8" style="fill: #000000;text-anchor:start;font-family:monospace;font-style:normal;font-weight:normal" x="561" y="492.9">
      <tspan x="561" y="492.9">nmon</tspan>
    </text>
  </g>
  <g>
    <line style="fill: none; fill-opacity:0; stroke-width: 2; stroke: #000000" x1="430.122" y1="485.965" x2="554" y2="485"/>
    <polyline style="fill: none; fill-opacity:0; stroke-width: 2; stroke: #000000" points="437.847,480.905 427.886,485.983 437.925,490.905 "/>
  </g>
  <text font-size="12.8" style="fill: #000000;text-anchor:start;font-family:sans-serif;font-style:normal;font-weight:normal" x="501" y="450">
    <tspan x="501" y="450">System information</tspan>
  </text>
  <g>
    <path style="fill: #a5a585" d="M 601.493 677.259 L 601.454,676.761 L 601.345,676.271 L 601.158,675.78 L 600.902,675.298 L 600.583,674.816 L 600.186,674.341 L 599.719,673.874 L 599.182,673.415 L 598.575,672.964 L 597.906,672.536 L 597.175,672.108 L 596.389,671.688 L 595.525,671.291 L 594.615,670.91 L 593.65,670.544 L 592.623,670.194 L 591.557,669.867 L 590.437,669.556 L 589.278,669.268 L 588.064,668.996 L 586.827,668.739 L 585.543,668.513 L 584.228,668.295 L 582.897,668.117 L 581.528,667.961 L 580.135,667.829 L 578.735,667.712 L 577.311,667.634 L 575.879,667.564 L 574.44,667.517 L 573.001,667.517 L 573.001,667.517 L 571.553,667.517 L 570.114,667.564 L 568.682,667.634 L 567.258,667.712 L 565.858,667.829 L 564.465,667.961 L 563.104,668.117 L 561.765,668.295 L 560.45,668.513 L 559.167,668.739 L 557.93,668.996 L 556.724,669.268 L 555.564,669.556 L 554.444,669.867 L 553.37,670.194 L 552.343,670.544 L 551.386,670.91 L 550.468,671.291 L 549.612,671.688 L 548.818,672.108 L 548.087,672.536 L 547.418,672.964 L 546.811,673.415 L 546.274,673.874 L 545.807,674.341 L 545.411,674.816 L 545.092,675.298 L 544.835,675.78 L 544.648,676.271 L 544.547,676.761 L 544.508,677.259 L 544.508,677.259 L 544.547,677.757 L 544.648,678.239 L 544.835,678.737 L 545.092,679.219 L 545.411,679.702 L 545.807,680.176 L 546.274,680.643 L 546.811,681.102 L 547.418,681.546 L 548.087,681.982 L 548.818,682.409 L 549.612,682.83 L 550.468,683.226 L 551.386,683.608 L 552.343,683.973 L 553.37,684.323 L 554.444,684.65 L 555.564,684.961 L 556.724,685.249 L 557.93,685.522 L 559.167,685.778 L 560.45,686.004 L 561.765,686.214 L 563.104,686.401 L 564.465,686.557 L 565.858,686.689 L 567.258,686.798 L 568.682,686.883 L 570.114,686.946 L 571.553,686.992 L 573.001,687 L 573.001,687 L 574.44,686.992 L 575.879,686.946 L 577.311,686.883 L 578.735,686.798 L 580.135,686.689 L 581.528,686.557 L 582.897,686.401 L 584.228,686.214 L 585.543,686.004 L 586.827,685.778 L 588.064,685.522 L 589.278,685.249 L 590.437,684.961 L 591.557,684.65 L 592.623,684.323 L 593.65,683.973 L 594.615,683.608 L 595.525,683.226 L 596.389,682.83 L 597.175,682.409 L 597.906,681.982 L 598.575,681.546 L 599.182,681.102 L 599.719,680.643 L 600.186,680.176 L 600.583,679.702 L 600.902,679.219 L 601.158,678.737 L 601.345,678.239 L 601.454,677.757 L 601.493,677.259z"/>
    <path style="fill: none; fill-opacity:0; stroke-width: 0.02; stroke: #494936" d="M 601.158 677.103 L 601.12,676.605 L 601.018,676.131 L 600.839,675.648 L 600.59,675.174 L 600.256,674.691 L 599.851,674.232 L 599.408,673.765 L 598.863,673.33 L 598.264,672.886 L 597.603,672.45 L 596.871,672.038 L 596.086,671.626 L 595.237,671.237 L 594.343,670.848 L 593.362,670.497 L 592.343,670.155 L 591.277,669.828 L 590.172,669.525 L 589.021,669.245 L 587.823,668.972 L 586.578,668.731 L 585.309,668.506 L 584.002,668.295 L 582.68,668.117 L 581.326,667.961 L 579.933,667.836 L 578.54,667.712 L 577.124,667.642 L 575.708,667.58 L 574.261,667.541 L 572.829,667.517 L 572.829,667.517 L 571.398,667.541 L 569.966,667.58 L 568.534,667.642 L 567.134,667.712 L 565.733,667.836 L 564.348,667.961 L 562.987,668.117 L 561.656,668.295 L 560.357,668.506 L 559.089,668.731 L 557.844,668.972 L 556.646,669.245 L 555.502,669.525 L 554.382,669.828 L 553.308,670.155 L 552.296,670.497 L 551.332,670.848 L 550.437,671.237 L 549.581,671.626 L 548.787,672.038 L 548.072,672.45 L 547.41,672.886 L 546.795,673.33 L 546.266,673.765 L 545.807,674.232 L 545.411,674.691 L 545.084,675.174 L 544.827,675.648 L 544.648,676.131 L 544.547,676.605 L 544.508,677.103 L 544.508,677.103 L 544.547,677.585 L 544.648,678.06 L 544.827,678.55 L 545.084,679.025 L 545.411,679.5 L 545.807,679.966 L 546.266,680.425 L 546.795,680.869 L 547.41,681.305 L 548.072,681.748 L 548.787,682.168 L 549.581,682.565 L 550.437,682.962 L 551.332,683.343 L 552.296,683.701 L 553.308,684.043 L 554.382,684.362 L 555.502,684.674 L 556.646,684.954 L 557.844,685.226 L 559.089,685.475 L 560.357,685.693 L 561.656,685.895 L 562.987,686.074 L 564.348,686.23 L 565.733,686.362 L 567.134,686.479 L 568.534,686.557 L 569.966,686.619 L 571.398,686.658 L 572.829,686.673 L 572.829,686.673 L 574.261,686.658 L 575.708,686.619 L 577.124,686.557 L 578.54,686.479 L 579.933,686.362 L 581.326,686.23 L 582.68,686.074 L 584.002,685.895 L 585.309,685.693 L 586.578,685.475 L 587.823,685.226 L 589.021,684.954 L 590.172,684.674 L 591.277,684.362 L 592.343,684.043 L 593.362,683.701 L 594.343,683.343 L 595.237,682.962 L 596.086,682.565 L 596.871,682.168 L 597.603,681.748 L 598.264,681.305 L 598.863,680.869 L 599.408,680.425 L 599.851,679.966 L 600.256,679.5 L 600.59,679.025 L 600.839,678.55 L 601.018,678.06 L 601.12,677.585 L 601.158,677.103"/>
    <path style="fill: #a5a585" d="M 544.508 656.912 L 544.508,677.43 L 601.158,677.43 L 601.158,656.912 L 544.508,656.912z"/>
    <path style="fill: #c9c9b6" d="M 601.493 656.741 L 601.454,656.236 L 601.345,655.745 L 601.158,655.263 L 600.902,654.781 L 600.583,654.29 L 600.186,653.816 L 599.719,653.341 L 599.182,652.898 L 598.575,652.454 L 597.906,652.003 L 597.175,651.591 L 596.389,651.17 L 595.525,650.766 L 594.615,650.392 L 593.65,650.027 L 592.623,649.669 L 591.557,649.342 L 590.437,649.039 L 589.278,648.743 L 588.064,648.471 L 586.827,648.222 L 585.543,647.996 L 584.228,647.786 L 582.897,647.599 L 581.528,647.443 L 580.135,647.311 L 578.735,647.202 L 577.311,647.117 L 575.879,647.047 L 574.44,647.008 L 573.001,647 L 573.001,647 L 571.553,647.008 L 570.114,647.047 L 568.682,647.117 L 567.258,647.202 L 565.858,647.311 L 564.465,647.443 L 563.104,647.599 L 561.765,647.786 L 560.45,647.996 L 559.167,648.222 L 557.93,648.471 L 556.724,648.743 L 555.564,649.039 L 554.444,649.342 L 553.37,649.669 L 552.343,650.027 L 551.386,650.392 L 550.468,650.766 L 549.612,651.17 L 548.818,651.591 L 548.087,652.003 L 547.418,652.454 L 546.811,652.898 L 546.274,653.341 L 545.807,653.816 L 545.411,654.29 L 545.092,654.781 L 544.835,655.263 L 544.648,655.745 L 544.547,656.236 L 544.508,656.741 L 544.508,656.741 L 544.547,657.231 L 544.648,657.729 L 544.835,658.204 L 545.092,658.702 L 545.411,659.177 L 545.807,659.659 L 546.274,660.126 L 546.811,660.577 L 547.418,661.028 L 548.087,661.464 L 548.818,661.892 L 549.612,662.304 L 550.468,662.701 L 551.386,663.082 L 552.343,663.456 L 553.37,663.798 L 554.444,664.133 L 555.564,664.444 L 556.724,664.732 L 557.93,665.004 L 559.167,665.261 L 560.45,665.479 L 561.765,665.697 L 563.104,665.876 L 564.465,666.031 L 565.858,666.171 L 567.258,666.273 L 568.682,666.366 L 570.114,666.428 L 571.553,666.467 L 573.001,666.483 L 573.001,666.483 L 574.44,666.467 L 575.879,666.428 L 577.311,666.366 L 578.735,666.273 L 580.135,666.171 L 581.528,666.031 L 582.897,665.876 L 584.228,665.697 L 585.543,665.479 L 586.827,665.261 L 588.064,665.004 L 589.278,664.732 L 590.437,664.444 L 591.557,664.133 L 592.623,663.798 L 593.65,663.456 L 594.615,663.082 L 595.525,662.701 L 596.389,662.304 L 597.175,661.892 L 597.906,661.464 L 598.575,661.028 L 599.182,660.577 L 599.719,660.126 L 600.186,659.659 L 600.583,659.177 L 600.902,658.702 L 601.158,658.204 L 601.345,657.729 L 601.454,657.231 L 601.493,656.741z"/>
    <path style="fill: none; fill-opacity:0; stroke-width: 0.02; stroke: #494936" d="M 601.158 656.586 L 601.12,656.088 L 601.018,655.613 L 600.839,655.138 L 600.59,654.656 L 600.256,654.166 L 599.851,653.707 L 599.408,653.263 L 598.863,652.804 L 598.264,652.369 L 597.603,651.925 L 596.871,651.521 L 596.086,651.108 L 595.237,650.711 L 594.343,650.346 L 593.362,649.98 L 592.343,649.645 L 591.277,649.319 L 590.172,649.007 L 589.021,648.72 L 587.823,648.455 L 586.578,648.214 L 585.309,647.988 L 584.002,647.786 L 582.68,647.599 L 581.326,647.443 L 579.933,647.311 L 578.54,647.202 L 577.124,647.117 L 576.65,647.093 L 569.009,647.093 L 568.534,647.117 L 567.134,647.202 L 565.733,647.311 L 564.348,647.443 L 562.987,647.599 L 561.656,647.786 L 560.357,647.988 L 559.089,648.214 L 557.844,648.455 L 556.646,648.72 L 555.502,649.007 L 554.382,649.319 L 553.308,649.645 L 552.296,649.98 L 551.332,650.346 L 550.437,650.711 L 549.581,651.108 L 548.787,651.521 L 548.072,651.925 L 547.41,652.369 L 546.795,652.804 L 546.266,653.263 L 545.807,653.707 L 545.411,654.166 L 545.084,654.656 L 544.827,655.138 L 544.648,655.613 L 544.547,656.088 L 544.508,656.586 L 544.508,656.586 L 544.547,657.06 L 544.648,657.55 L 544.827,658.033 L 545.084,658.507 L 545.411,658.982 L 545.807,659.449 L 546.266,659.9 L 546.795,660.359 L 547.41,660.795 L 548.072,661.231 L 548.787,661.651 L 549.581,662.048 L 550.437,662.437 L 551.332,662.826 L 552.296,663.184 L 553.308,663.518 L 554.382,663.837 L 555.502,664.148 L 556.646,664.429 L 557.844,664.701 L 559.089,664.958 L 560.357,665.16 L 561.656,665.378 L 562.987,665.549 L 564.348,665.712 L 565.733,665.852 L 567.134,665.961 L 568.534,666.047 L 569.966,666.101 L 571.398,666.132 L 572.829,666.156 L 572.829,666.156 L 574.261,666.132 L 575.708,666.101 L 577.124,666.047 L 578.54,665.961 L 579.933,665.852 L 581.326,665.712 L 582.68,665.549 L 584.002,665.378 L 585.309,665.16 L 586.578,664.958 L 587.823,664.701 L 589.021,664.429 L 590.172,664.148 L 591.277,663.837 L 592.343,663.518 L 593.362,663.184 L 594.343,662.826 L 595.237,662.437 L 596.086,662.048 L 596.871,661.651 L 597.603,661.231 L 598.264,660.795 L 598.863,660.359 L 599.408,659.9 L 599.851,659.449 L 600.256,658.982 L 600.59,658.507 L 600.839,658.033 L 601.018,657.55 L 601.12,657.06 L 601.158,656.586"/>
    <path style="fill: none; fill-opacity:0; stroke-width: 0.02; stroke: #000000" d="M 544.508 656.586 L 544.508,677.088"/>
    <path style="fill: none; fill-opacity:0; stroke-width: 0.02; stroke: #000000" d="M 601.158 656.586 L 601.158,677.088"/>
  </g>
  <text font-size="12.8" style="fill: #000000;text-anchor:start;font-family:sans-serif;font-style:normal;font-weight:normal" x="549" y="679">
    <tspan x="549" y="679">Storage</tspan>
  </text>
  <text font-size="12.8" style="fill: #000000;text-anchor:start;font-family:sans-serif;font-style:normal;font-weight:normal" x="503" y="631">
    <tspan x="503" y="631">File Size information</tspan>
  </text>
  <g>
    <polyline style="fill: none; fill-opacity:0; stroke-width: 2; stroke: #000000" points="315.2,34 315.2,13 658.95,13 658.95,55.5279 "/>
    <polyline style="fill: none; fill-opacity:0; stroke-width: 2; stroke: #000000" points="653.95,47.7639 658.95,57.7639 663.95,47.7639 "/>
  </g>
  <g>
    <polyline style="fill: none; fill-opacity:0; stroke-width: 2; stroke: #000000" points="476.45,34 476.45,13 658.95,13 658.95,54.5223 "/>
    <polyline style="fill: none; fill-opacity:0; stroke-width: 2; stroke: #000000" points="653.95,46.7583 658.95,56.7583 663.95,46.7583 "/>
  </g>
  <g>
    <line style="fill: none; fill-opacity:0; stroke-width: 2; stroke: #000000" x1="659.95" y1="118" x2="659.996" y2="173.528"/>
    <polyline style="fill: none; fill-opacity:0; stroke-width: 2; stroke: #000000" points="654.99,165.768 659.998,175.764 664.99,165.76 "/>
  </g>
  <g>
    <polygon style="fill: #ffffff" points="620,184 787.7,184 799.7,196 799.7,218 620,218 "/>
    <polygon style="fill: none; fill-opacity:0; stroke-width: 2; stroke: #000000" points="620,184 787.7,184 799.7,196 799.7,218 620,218 "/>
    <polyline style="fill: none; fill-opacity:0; stroke-width: 1; stroke: #000000" points="787.7,184 787.7,196 799.7,196 "/>
    <text font-size="12.8" style="fill: #000000;text-anchor:start;font-family:monospace;font-style:normal;font-weight:normal" x="627" y="208.9">
      <tspan x="627" y="208.9">Graphs of information</tspan>
    </text>
  </g>
  <g>
    <rect style="fill: #ffffff" x="628" y="62" width="63.9" height="28"/>
    <rect style="fill: none; fill-opacity:0; stroke-width: 2; stroke: #000000" x="628" y="62" width="63.9" height="28"/>
    <text font-size="16" style="fill: #000000;text-anchor:middle;font-family:sans-serif;font-style:normal;font-weight:700" x="659.95" y="81">draw</text>
    <rect style="fill: #ffffff" x="628" y="90" width="63.9" height="8"/>
    <rect style="fill: none; fill-opacity:0; stroke-width: 2; stroke: #000000" x="628" y="90" width="63.9" height="8"/>
    <rect style="fill: #ffffff" x="628" y="98" width="63.9" height="20"/>
    <rect style="fill: none; fill-opacity:0; stroke-width: 2; stroke: #000000" x="628" y="98" width="63.9" height="20"/>
    <text font-size="12.8" style="fill: #000000;text-anchor:start;font-family:monospace;font-style:normal;font-weight:normal" x="631" y="112">+draw()</text>
  </g>
  <g>
    <polygon style="fill: #ffffff" points="541,568 600.9,568 612.9,580 612.9,602 541,602 "/>
    <polygon style="fill: none; fill-opacity:0; stroke-width: 2; stroke: #000000" points="541,568 600.9,568 612.9,580 612.9,602 541,602 "/>
    <polyline style="fill: none; fill-opacity:0; stroke-width: 1; stroke: #000000" points="600.9,568 600.9,580 612.9,580 "/>
    <text font-size="12.7998" style="fill: #000000;text-anchor:start;font-family:monospace;font-style:normal;font-weight:normal" x="548" y="592.9">
      <tspan x="548" y="592.9">netstat</tspan>
    </text>
  </g>
  <g>
    <polyline style="fill: none; fill-opacity:0; stroke-width: 2; stroke: #000000" points="227,524.472 227,543.496 576.95,543.496 576.95,566.991 "/>
    <polyline style="fill: none; fill-opacity:0; stroke-width: 2; stroke: #000000" points="232,532.236 227,522.236 222,532.236 "/>
  </g>
  <text font-size="12.7998" style="fill: #000000;text-anchor:start;font-family:sans-serif;font-style:normal;font-weight:normal" x="504" y="533">
    <tspan x="504" y="533">Flow information</tspan>
  </text>
  <g>
    <polyline style="fill: none; fill-opacity:0; stroke-width: 2; stroke: #000000" points="571,643 419.604,643 419.604,621 272.68,621 "/>
    <polyline style="fill: none; fill-opacity:0; stroke-width: 2; stroke: #000000" points="280.444,616 270.444,621 280.444,626 "/>
  </g>
</svg>
